<svg width="80" height="92" viewBox="0 0 80 92" fill="none" xmlns="http://www.w3.org/2000/svg">
<g clip-path="url(#clip0_51_45)">
<path fill-rule="evenodd" clip-rule="evenodd" d="M36.1347 41.4397H17.0707V69.8978H0V0H30.9437L58.3592 0.0399843L58.2872 41.3811L36.1267 41.4397H36.1347ZM37.8402 13.8879H17.0707V27.3279H34.0402L42.834 27.3546L42.7994 13.9145L37.8402 13.8879Z" fill="white"/>
<path fill-rule="evenodd" clip-rule="evenodd" d="M79.9173 69.8978V0H62.8492V54.8184H21.3076V69.8978H79.9173Z" fill="white"/>
<path fill-rule="evenodd" clip-rule="evenodd" d="M5.00935 88.3493H1.81159V92.1798H0.0634766V83.3006H7.48228V85.8329V88.3626H5.02267L5.00935 88.3493ZM5.00935 84.9239H1.81159V86.7259H5.72085V84.9266L5.00935 84.9239ZM8.81468 92.1798V83.3006H10.5655V90.5564H15.3621V92.1798H8.81468ZM15.6233 92.1798L19.1248 83.3006H21.0781L24.577 92.1798H22.7116L21.5844 89.2982H18.6025L17.4993 92.1771L15.6233 92.1798ZM20.1001 85.3798L19.1994 87.7388H21.0008L20.1001 85.3798ZM31.8812 84.9239V83.3006H23.6896V84.9239H26.914V92.1798H28.6648V84.9239H31.8812ZM39.1721 88.1227H34.8338V92.1824H33.083V83.3006H39.6011V84.9239H34.8338V86.4967H39.1721V88.12V88.1227ZM41.701 91.0975C40.8945 90.2907 40.4912 89.172 40.4912 87.7415C40.4912 86.311 40.8945 85.1923 41.701 84.3855C42.5022 83.5734 43.5779 83.1673 44.9281 83.1673C46.2782 83.1673 47.3539 83.5707 48.1551 84.3775C48.9617 85.1843 49.365 86.303 49.365 87.7335C49.365 89.1641 48.9617 90.2827 48.1551 91.0895C47.3486 91.8963 46.2729 92.2997 44.9281 92.2997C43.5832 92.2997 42.5075 91.8963 41.701 91.0895V91.0975ZM46.8574 85.5664C46.3373 85.0695 45.6459 84.7923 44.9267 84.7923C44.2076 84.7923 43.5162 85.0695 42.9961 85.5664C42.5093 86.0817 42.2659 86.8094 42.2659 87.7495C42.2659 88.6896 42.5093 89.4164 42.9961 89.93C43.5162 90.4268 44.2076 90.704 44.9267 90.704C45.6459 90.704 46.3373 90.4268 46.8574 89.93C47.3388 89.4146 47.5796 88.6878 47.5796 87.7495C47.5796 86.8112 47.3388 86.0835 46.8574 85.5664ZM56.925 92.1877L53.9937 88.1174H52.712V92.1877H50.9612V83.3006H55.7791H58.2414L58.2654 88.0987H55.947L58.9769 92.1691L56.925 92.1877ZM55.7711 84.9319H52.7013V86.4913H56.4933V84.9266H55.7552L55.7711 84.9319ZM68.0719 86.7072L65.6123 92.1877H64.3198L61.8602 86.7072V92.1877H60.1094V83.3006H62.0254L64.9567 89.6821L67.888 83.3006H69.8173V92.1798H68.0665V86.6992L68.0719 86.7072ZM70.9632 92.1877L74.4621 83.3086H76.4154L79.9143 92.1877H78.0489L76.935 89.2982H73.9424L72.8392 92.1771L70.9632 92.1877ZM75.4401 85.3878L74.5394 87.7468H76.3408L75.4401 85.3878Z" fill="white"/>
</g>
<defs>
<clipPath id="clip0_51_45">
<rect width="80" height="92" fill="white"/>
</clipPath>
</defs>
</svg>
