<svg xmlns="http://www.w3.org/2000/svg" width="78.001" height="72" viewBox="0 0 78.001 72">
  <g id="Group_481" data-name="Group 481" transform="translate(-1559 -1533)">
    <g id="Group_35" data-name="Group 35" transform="translate(243.847 441.706)">
      <path id="Path_25" data-name="Path 25" d="M30.185,58.756V55.587a11.009,11.009,0,0,0-2.206-6.619l-3.112-4.136a15.84,15.84,0,0,1-3.173-9.524v-6.5s-.3-2.254-2.218-2.254a2.753,2.753,0,0,0-2.491,1.977" transform="translate(1311.994 1088.182)" fill="none" stroke="#68cae1" stroke-linecap="round" stroke-linejoin="round" stroke-width="2"/>
      <path id="Path_26" data-name="Path 26" d="M13.354,36.531V22.594l.21-.721L17.753,7.511a2.838,2.838,0,0,0-2-3.553A2.779,2.779,0,0,0,12.475,5.7L1.832,34.133a4.732,4.732,0,0,0-.3,2.239,3.467,3.467,0,0,0,.936,2.04c.97.985,3.726,5.655,5.368,8.5a9.546,9.546,0,0,1,1.273,4.773v1.992" transform="translate(1315.652 1093.262)" fill="none" stroke="#68cae1" stroke-linecap="round" stroke-linejoin="round" stroke-width="2"/>
      <path id="Path_27" data-name="Path 27" d="M31.178,81.479H5.867V71.207a2.813,2.813,0,0,1,2.791-2.836h19.73a2.813,2.813,0,0,1,2.79,2.836Z" transform="translate(1314.621 1078.815)" fill="none" stroke="#68cae1" stroke-linecap="round" stroke-linejoin="round" stroke-width="2"/>
      <path id="Path_28" data-name="Path 28" d="M66.93,58.756V55.587a11.009,11.009,0,0,1,2.206-6.619l3.112-4.136a15.84,15.84,0,0,0,3.173-9.524v-6.5s.3-2.254,2.218-2.254a2.753,2.753,0,0,1,2.491,1.977" transform="translate(1300.196 1088.182)" fill="none" stroke="#68cae1" stroke-linecap="round" stroke-linejoin="round" stroke-width="2"/>
      <path id="Path_29" data-name="Path 29" d="M82.781,36.531V22.594l-.21-.721L78.382,7.511a2.838,2.838,0,0,1,2-3.553A2.779,2.779,0,0,1,83.661,5.7L94.3,34.133a4.732,4.732,0,0,1,.3,2.239,3.467,3.467,0,0,1-.936,2.04c-.97.985-3.726,5.655-5.368,8.5a9.546,9.546,0,0,0-1.273,4.773v1.992" transform="translate(1297.517 1093.262)" fill="none" stroke="#68cae1" stroke-linecap="round" stroke-linejoin="round" stroke-width="2"/>
      <path id="Path_30" data-name="Path 30" d="M62.191,81.479H87.5V71.207a2.813,2.813,0,0,0-2.791-2.836H64.981a2.813,2.813,0,0,0-2.79,2.836Z" transform="translate(1301.315 1078.815)" fill="none" stroke="#68cae1" stroke-linecap="round" stroke-linejoin="round" stroke-width="2"/>
      <path id="Path_31" data-name="Path 31" d="M40.788,13.959C33.167,12.3,28,19.348,28,24.726c0,7.17,7.585,14.563,16.942,14.563S61.88,31.9,61.88,24.726c0-5.1-6.015-12.869-12.71-10.6a17.146,17.146,0,0,1-8.33-.152Z" transform="translate(1309.393 1091.058)" fill="none" stroke="#68cae1" stroke-linecap="round" stroke-linejoin="round" stroke-width="2"/>
      <path id="Path_32" data-name="Path 32" d="M50.381,10.489S49.02,3.851,55.146,1.5" transform="translate(1304.135 1093.794)" fill="none" stroke="#68cae1" stroke-linecap="round" stroke-linejoin="round" stroke-width="2"/>
    </g>
    <g id="Group_480" data-name="Group 480">
      <rect id="Rectangle_305" data-name="Rectangle 305" width="78" height="72" transform="translate(1559 1533)" fill="none"/>
    </g>
  </g>
</svg>
