<svg xmlns="http://www.w3.org/2000/svg" xmlns:xlink="http://www.w3.org/1999/xlink" width="78" height="72" viewBox="0 0 78 72">
  <defs>
    <clipPath id="clip-path">
      <rect id="Rectangle_38" data-name="Rectangle 38" width="37" height="65" fill="#68cae1"/>
    </clipPath>
  </defs>
  <g id="Group_479" data-name="Group 479" transform="translate(-1134 -1675)">
    <rect id="Rectangle_303" data-name="Rectangle 303" width="78" height="72" transform="translate(1134 1675)" fill="none"/>
    <g id="Group_478" data-name="Group 478" transform="matrix(0.695, 0.719, -0.719, 0.695, 1183.757, 1675)">
      <g id="Group_4" data-name="Group 4" transform="translate(0 0)" clip-path="url(#clip-path)">
        <path id="Path_14" data-name="Path 14" d="M33.511,65a1.4,1.4,0,0,1-.49-.087.827.827,0,0,1-.542-1.2c.441-.732,10.507-18.088-14.585-30.453C-8.956,20.029,2.34.706,2.457.512A1.294,1.294,0,0,1,3.979.087a.827.827,0,0,1,.542,1.2c-.44.733-10.506,18.089,14.586,30.455C45.957,44.97,34.659,64.293,34.542,64.487A1.2,1.2,0,0,1,33.511,65" transform="translate(0 0)" fill="#68cae1"/>
        <path id="Path_15" data-name="Path 15" d="M3.489,65a1.2,1.2,0,0,1-1.032-.512C2.34,64.294-8.956,44.971,17.893,31.739,42.985,19.373,32.919,2.017,32.477,1.284a.828.828,0,0,1,.543-1.2,1.291,1.291,0,0,1,1.521.425c.117.194,11.415,19.517-15.436,32.75C-5.985,45.628,4.08,62.983,4.521,63.715a.827.827,0,0,1-.542,1.2,1.4,1.4,0,0,1-.49.087" transform="translate(0 0)" fill="#68cae1"/>
        <path id="Path_16" data-name="Path 16" d="M29.415,1.8H1.143A1.043,1.043,0,0,1,0,.9,1.043,1.043,0,0,1,1.143,0H29.415a1.043,1.043,0,0,1,1.143.9,1.043,1.043,0,0,1-1.143.9" transform="translate(0.766 6.169)" fill="#68cae1"/>
        <path id="Path_17" data-name="Path 17" d="M27.553,1.8H1.143A1.043,1.043,0,0,1,0,.9,1.043,1.043,0,0,1,1.143,0h26.41A1.043,1.043,0,0,1,28.7.9a1.043,1.043,0,0,1-1.143.9" transform="translate(7.199 14.891)" fill="#68cae1"/>
        <path id="Path_18" data-name="Path 18" d="M15.448,1.8H1.143A1.043,1.043,0,0,1,0,.9,1.043,1.043,0,0,1,1.143,0H15.448a1.043,1.043,0,0,1,1.143.9,1.043,1.043,0,0,1-1.143.9" transform="translate(6.522 23.612)" fill="#68cae1"/>
        <path id="Path_19" data-name="Path 19" d="M29.415,1.8H1.143A1.043,1.043,0,0,1,0,.9,1.043,1.043,0,0,1,1.143,0H29.415a1.043,1.043,0,0,1,1.143.9,1.043,1.043,0,0,1-1.143.9" transform="translate(6.098 57.854)" fill="#68cae1"/>
        <path id="Path_20" data-name="Path 20" d="M27.553,1.8H1.143A1.043,1.043,0,0,1,0,.9,1.043,1.043,0,0,1,1.143,0H27.553A1.043,1.043,0,0,1,28.7.9a1.043,1.043,0,0,1-1.143.9" transform="translate(1.527 49.133)" fill="#68cae1"/>
        <path id="Path_21" data-name="Path 21" d="M15.448,1.8H1.143A1.043,1.043,0,0,1,0,.9,1.043,1.043,0,0,1,1.143,0h14.3A1.043,1.043,0,0,1,16.59.9a1.043,1.043,0,0,1-1.143.9" transform="translate(14.31 40.411)" fill="#68cae1"/>
      </g>
    </g>
  </g>
</svg>
