<svg xmlns="http://www.w3.org/2000/svg" xmlns:xlink="http://www.w3.org/1999/xlink" width="40" height="40" viewBox="0 0 40 40">
  <defs>
    <clipPath id="clip-path">
      <rect id="Rectangle_45" data-name="Rectangle 45" width="40" height="40" fill="#69b54a"/>
    </clipPath>
  </defs>
  <g id="Mask_Group_3" data-name="Mask Group 3" clip-path="url(#clip-path)">
    <path id="Path_34" data-name="Path 34" d="M20,40A19.958,19.958,0,0,1,9.928,37.283L.616,39.822l3.046-8.284A20,20,0,1,1,38.428,12.216,19.995,19.995,0,0,1,20,40m-9.708-5.287.441.273a17.625,17.625,0,1,0-4.784-4.357l.393.519-1.9,5.159Z" transform="translate(0 -0.001)" fill="#69b54a"/>
    <path id="Path_35" data-name="Path 35" d="M131.73,127.631a1.674,1.674,0,0,1,1.359.13,3.056,3.056,0,0,1,.63.544l3.026,3.027a1.669,1.669,0,0,1,.5,1.172,1.781,1.781,0,0,1-.3,1.017,3.674,3.674,0,0,1-.422.478c-.488.49-.981.976-1.466,1.469.138.3.316.573.473.86s.336.567.513.845a14.458,14.458,0,0,0,2.215,2.762,14.253,14.253,0,0,0,2.562,2.01c.548.358,1.122.674,1.7.984q.817-.82,1.638-1.638a1.8,1.8,0,0,1,.717-.459,1.67,1.67,0,0,1,1.294.061,2.763,2.763,0,0,1,.781.639q1.5,1.5,2.994,2.994a1.729,1.729,0,0,1,.5,1.17v.078a2.008,2.008,0,0,1-.2.739,4.617,4.617,0,0,1-.923,1.044,2.024,2.024,0,0,1-.464.4,5.439,5.439,0,0,1-1.589.814,5.293,5.293,0,0,1-.822.2,3.01,3.01,0,0,1-.926.039,8,8,0,0,1-1.162-.124c-.342-.043-.671-.147-1.008-.216-.333-.1-.673-.185-1-.317-.418-.123-.811-.315-1.215-.475-.361-.171-.719-.35-1.075-.532-.491-.284-.99-.555-1.456-.881-.58-.361-1.114-.789-1.661-1.2-.6-.486-1.185-.992-1.741-1.53-.522-.474-.994-1-1.486-1.5a22.522,22.522,0,0,1-3.695-4.971,10.023,10.023,0,0,1-1-3.013,8.012,8.012,0,0,1-.066-2.269A5.526,5.526,0,0,1,130,129.157a1.238,1.238,0,0,1,.157-.244l.761-.763a1.885,1.885,0,0,1,.814-.519" transform="translate(-119.456 -118.195)" fill="#69b54a"/>
  </g>
</svg>
