<svg xmlns="http://www.w3.org/2000/svg" xmlns:xlink="http://www.w3.org/1999/xlink" width="72.459" height="71.768" viewBox="0 0 72.459 71.768">
  <defs>
    <clipPath id="clip-path">
      <rect id="Rectangle_38" data-name="Rectangle 38" width="37" height="65" fill="#68cae1"/>
    </clipPath>
  </defs>
  <g id="Group_24" data-name="Group 24" transform="matrix(0.695, 0.719, -0.719, 0.695, 49.661, 3.007)">
    <g id="Group_4" data-name="Group 4" transform="translate(-4.18)" clip-path="url(#clip-path)">
      <path id="Path_14" data-name="Path 14" d="M33.511,65a1.4,1.4,0,0,1-.49-.087.827.827,0,0,1-.542-1.2c.441-.732,10.507-18.088-14.585-30.453C-8.956,20.03,2.34.706,2.458.513A1.294,1.294,0,0,1,3.979.088a.827.827,0,0,1,.542,1.2c-.44.733-10.506,18.089,14.586,30.455C45.957,44.971,34.66,64.294,34.542,64.488A1.2,1.2,0,0,1,33.511,65" transform="translate(0 0)" fill="#68cae1"/>
      <path id="Path_15" data-name="Path 15" d="M3.489,65a1.2,1.2,0,0,1-1.032-.512C2.34,64.294-8.956,44.97,17.893,31.739,42.985,19.373,32.919,2.017,32.478,1.284a.828.828,0,0,1,.543-1.2,1.291,1.291,0,0,1,1.521.425c.117.194,11.415,19.517-15.436,32.75C-5.985,45.628,4.08,62.983,4.522,63.715a.827.827,0,0,1-.542,1.2,1.4,1.4,0,0,1-.49.087" transform="translate(0 0)" fill="#68cae1"/>
      <path id="Path_16" data-name="Path 16" d="M30.42,12.094H2.148A1.043,1.043,0,0,1,1,11.195a1.043,1.043,0,0,1,1.143-.9H30.42a1.043,1.043,0,0,1,1.143.9,1.043,1.043,0,0,1-1.143.9" transform="translate(-0.239 -4.127)" fill="#68cae1"/>
      <path id="Path_17" data-name="Path 17" d="M37,26.65H10.592a1.043,1.043,0,0,1-1.143-.9,1.043,1.043,0,0,1,1.143-.9H37a1.043,1.043,0,0,1,1.143.9,1.043,1.043,0,0,1-1.143.9" transform="translate(-2.25 -9.961)" fill="#68cae1"/>
      <path id="Path_18" data-name="Path 18" d="M24.009,41.2H9.7a.925.925,0,1,1,0-1.8H24.009a.925.925,0,1,1,0,1.8" transform="translate(-2.039 -15.795)" fill="#68cae1"/>
      <path id="Path_19" data-name="Path 19" d="M37.42,98.353H9.148a.925.925,0,1,1,0-1.8H37.42a.925.925,0,1,1,0,1.8" transform="translate(-1.907 -38.701)" fill="#68cae1"/>
      <path id="Path_20" data-name="Path 20" d="M29.558,83.8H3.148a.925.925,0,1,1,0-1.8H29.558a.925.925,0,1,1,0,1.8" transform="translate(-0.478 -32.867)" fill="#68cae1"/>
      <path id="Path_21" data-name="Path 21" d="M34.232,69.242h-14.3a.925.925,0,1,1,0-1.8h14.3a.925.925,0,1,1,0,1.8" transform="translate(-4.474 -27.033)" fill="#68cae1"/>
    </g>
  </g>
</svg>
